# This file uses centimeters as units for non-parametric coordinates.

mtllib Rail_fence.mtl
g default
v -0.582387 -0.036157 0.582387
v 0.582387 -0.036157 0.582387
v -0.582387 0.223209 0.582387
v 0.582387 0.223209 0.582387
v -0.582387 0.482575 0.582387
v 0.582387 0.482575 0.582387
v -0.582387 0.482575 -0.582387
v 0.582387 0.482575 -0.582387
v -0.582387 0.223209 -0.582387
v 0.582387 0.223209 -0.582387
v -0.582387 -0.036157 -0.582387
v 0.582387 -0.036157 -0.582387
v -0.316482 0.694021 0.316482
v 0.316482 0.694021 0.316482
v 0.316482 0.694021 -0.316482
v -0.316482 0.694021 -0.316482
v -0.413135 0.863194 0.413135
v 0.413135 0.863194 0.413135
v 0.413135 0.863194 -0.413135
v -0.413135 0.863194 -0.413135
v -0.413135 1.026866 0.413135
v 0.413135 1.026866 0.413135
v 0.413135 1.026866 -0.413135
v -0.413135 1.026866 -0.413135
v -0.274093 1.222991 0.274093
v 0.274093 1.222991 0.274093
v 0.274093 1.222991 -0.274093
v -0.274093 1.222991 -0.274093
v -0.274093 4.519305 0.274093
v 0.274093 4.519305 0.274093
v 0.274093 4.519305 -0.274093
v -0.274093 4.519305 -0.274093
v -0.416914 4.760511 0.416914
v 0.416914 4.760511 0.416914
v 0.416914 4.760511 -0.416914
v -0.416914 4.760511 -0.416914
v -0.416914 4.967874 0.416914
v 0.416914 4.967874 0.416914
v 0.416914 4.967874 -0.416914
v -0.416914 4.967874 -0.416914
v -0.227506 5.178525 0.227506
v 0.227506 5.178525 0.227506
v 0.227506 5.178525 -0.227506
v -0.227506 5.178525 -0.227506
v -0.550505 5.563204 0.550505
v 0.550505 5.563204 0.550505
v 0.550505 5.563204 -0.550505
v -0.550505 5.563204 -0.550505
v -0.550505 5.763223 0.550505
v 0.550505 5.763223 0.550505
v 0.550505 5.763223 -0.550505
v -0.550505 5.763223 -0.550505
v -0.550505 6.007783 0.550505
v 0.550505 6.007783 0.550505
v 0.550505 6.007783 -0.550505
v -0.550505 6.007783 -0.550505
vt 0.375000 0.000000
vt 0.625000 0.000000
vt 0.375000 0.125000
vt 0.625000 0.125000
vt 0.375000 0.250000
vt 0.625000 0.250000
vt 0.375000 0.500000
vt 0.625000 0.500000
vt 0.375000 0.625000
vt 0.625000 0.625000
vt 0.375000 0.750000
vt 0.625000 0.750000
vt 0.375000 1.000000
vt 0.625000 1.000000
vt 0.875000 0.000000
vt 0.875000 0.125000
vt 0.875000 0.250000
vt 0.125000 0.000000
vt 0.125000 0.125000
vt 0.125000 0.250000
vt 0.375000 0.250000
vt 0.625000 0.250000
vt 0.625000 0.500000
vt 0.375000 0.500000
vt 0.375000 0.250000
vt 0.625000 0.250000
vt 0.625000 0.500000
vt 0.375000 0.500000
vt 0.375000 0.250000
vt 0.625000 0.250000
vt 0.625000 0.500000
vt 0.375000 0.500000
vt 0.375000 0.250000
vt 0.625000 0.250000
vt 0.625000 0.500000
vt 0.375000 0.500000
vt 0.375000 0.250000
vt 0.625000 0.250000
vt 0.625000 0.500000
vt 0.375000 0.500000
vt 0.375000 0.250000
vt 0.625000 0.250000
vt 0.625000 0.500000
vt 0.375000 0.500000
vt 0.375000 0.250000
vt 0.625000 0.250000
vt 0.625000 0.500000
vt 0.375000 0.500000
vt 0.375000 0.250000
vt 0.625000 0.250000
vt 0.625000 0.500000
vt 0.375000 0.500000
vt 0.375000 0.250000
vt 0.625000 0.250000
vt 0.625000 0.500000
vt 0.375000 0.500000
vt 0.375000 0.250000
vt 0.625000 0.250000
vt 0.625000 0.500000
vt 0.375000 0.500000
vt 0.375000 0.250000
vt 0.625000 0.250000
vt 0.625000 0.500000
vt 0.375000 0.500000
vn 0.000000 0.000000 1.000000
vn 0.000000 0.000000 1.000000
vn 0.000000 0.000000 1.000000
vn 0.000000 0.000000 1.000000
vn 0.000000 0.000000 1.000000
vn 0.000000 0.000000 1.000000
vn 0.000000 1.000000 0.000000
vn 0.000000 1.000000 0.000000
vn 0.000000 1.000000 0.000000
vn 0.000000 1.000000 0.000000
vn 0.000000 0.000000 -1.000000
vn 0.000000 0.000000 -1.000000
vn 0.000000 0.000000 -1.000000
vn 0.000000 0.000000 -1.000000
vn 0.000000 0.000000 -1.000000
vn 0.000000 0.000000 -1.000000
vn 0.000000 -1.000000 0.000000
vn 0.000000 -1.000000 0.000000
vn 0.000000 -1.000000 0.000000
vn 0.000000 -1.000000 0.000000
vn 1.000000 0.000000 0.000000
vn 1.000000 0.000000 0.000000
vn 1.000000 0.000000 0.000000
vn 1.000000 0.000000 0.000000
vn 1.000000 0.000000 0.000000
vn 1.000000 0.000000 0.000000
vn -1.000000 0.000000 0.000000
vn -1.000000 0.000000 0.000000
vn -1.000000 0.000000 0.000000
vn -1.000000 0.000000 0.000000
vn -1.000000 0.000000 0.000000
vn -1.000000 0.000000 0.000000
vn 0.000000 0.782701 0.622398
vn 0.000000 0.782701 0.622398
vn 0.000000 0.782701 0.622398
vn 0.000000 0.782701 0.622398
vn 0.622398 0.782701 0.000000
vn 0.622398 0.782701 0.000000
vn 0.622398 0.782701 0.000000
vn 0.622398 0.782701 0.000000
vn 0.000000 0.782701 -0.622398
vn 0.000000 0.782701 -0.622398
vn 0.000000 0.782701 -0.622398
vn 0.000000 0.782701 -0.622398
vn -0.622398 0.782701 0.000000
vn -0.622398 0.782701 0.000000
vn -0.622398 0.782701 0.000000
vn -0.622398 0.782701 0.000000
vn 0.000000 -0.496073 0.868281
vn 0.000000 -0.496073 0.868281
vn 0.000000 -0.496073 0.868281
vn 0.000000 -0.496073 0.868281
vn 0.868281 -0.496073 0.000000
vn 0.868281 -0.496073 0.000000
vn 0.868281 -0.496073 0.000000
vn 0.868281 -0.496073 0.000000
vn 0.000000 -0.496073 -0.868281
vn 0.000000 -0.496073 -0.868281
vn 0.000000 -0.496073 -0.868281
vn 0.000000 -0.496073 -0.868281
vn -0.868281 -0.496073 0.000000
vn -0.868281 -0.496073 0.000000
vn -0.868281 -0.496073 0.000000
vn -0.868281 -0.496073 0.000000
vn 0.000000 0.000000 1.000000
vn 0.000000 0.000000 1.000000
vn 0.000000 0.000000 1.000000
vn 0.000000 0.000000 1.000000
vn 1.000000 0.000000 0.000000
vn 1.000000 0.000000 0.000000
vn 1.000000 0.000000 0.000000
vn 1.000000 0.000000 0.000000
vn 0.000000 0.000000 -1.000000
vn 0.000000 0.000000 -1.000000
vn 0.000000 0.000000 -1.000000
vn 0.000000 0.000000 -1.000000
vn -1.000000 0.000000 0.000000
vn -1.000000 0.000000 0.000000
vn -1.000000 0.000000 0.000000
vn -1.000000 0.000000 0.000000
vn 0.000000 0.578349 0.815790
vn 0.000000 0.578349 0.815790
vn 0.000000 0.578349 0.815790
vn 0.000000 0.578349 0.815790
vn 0.815790 0.578349 0.000000
vn 0.815790 0.578349 0.000000
vn 0.815790 0.578349 0.000000
vn 0.815790 0.578349 0.000000
vn 0.000000 0.578349 -0.815790
vn 0.000000 0.578349 -0.815790
vn 0.000000 0.578349 -0.815790
vn 0.000000 0.578349 -0.815790
vn -0.815790 0.578349 0.000000
vn -0.815790 0.578349 0.000000
vn -0.815790 0.578349 0.000000
vn -0.815790 0.578349 0.000000
vn 0.000000 0.000000 1.000000
vn 0.000000 0.000000 1.000000
vn 0.000000 0.000000 1.000000
vn 0.000000 0.000000 1.000000
vn 1.000000 0.000000 0.000000
vn 1.000000 0.000000 0.000000
vn 1.000000 0.000000 0.000000
vn 1.000000 0.000000 0.000000
vn 0.000000 0.000000 -1.000000
vn 0.000000 0.000000 -1.000000
vn 0.000000 0.000000 -1.000000
vn 0.000000 0.000000 -1.000000
vn -1.000000 0.000000 0.000000
vn -1.000000 0.000000 0.000000
vn -1.000000 0.000000 0.000000
vn -1.000000 0.000000 0.000000
vn 0.000000 -0.509494 0.860474
vn 0.000000 -0.509494 0.860474
vn 0.000000 -0.509494 0.860474
vn 0.000000 -0.509494 0.860474
vn 0.860474 -0.509495 0.000000
vn 0.860474 -0.509495 0.000000
vn 0.860474 -0.509494 0.000000
vn 0.860474 -0.509494 0.000000
vn 0.000000 -0.509494 -0.860474
vn 0.000000 -0.509494 -0.860474
vn 0.000000 -0.509494 -0.860474
vn 0.000000 -0.509494 -0.860474
vn -0.860474 -0.509495 0.000000
vn -0.860474 -0.509495 0.000000
vn -0.860474 -0.509494 0.000000
vn -0.860474 -0.509494 0.000000
vn 0.000000 0.000000 1.000000
vn 0.000000 0.000000 1.000000
vn 0.000000 0.000000 1.000000
vn 0.000000 0.000000 1.000000
vn 1.000000 0.000000 0.000000
vn 1.000000 0.000000 0.000000
vn 1.000000 0.000000 0.000000
vn 1.000000 0.000000 0.000000
vn 0.000000 0.000000 -1.000000
vn 0.000000 0.000000 -1.000000
vn 0.000000 0.000000 -1.000000
vn 0.000000 0.000000 -1.000000
vn -1.000000 0.000000 0.000000
vn -1.000000 0.000000 0.000000
vn -1.000000 0.000000 0.000000
vn -1.000000 0.000000 0.000000
vn 0.000000 0.668616 0.743608
vn 0.000000 0.668616 0.743608
vn 0.000000 0.668616 0.743608
vn 0.000000 0.668616 0.743608
vn 0.743608 0.668615 0.000000
vn 0.743608 0.668615 0.000000
vn 0.743608 0.668616 0.000000
vn 0.743608 0.668616 0.000000
vn 0.000000 0.668616 -0.743608
vn 0.000000 0.668616 -0.743608
vn 0.000000 0.668616 -0.743608
vn 0.000000 0.668616 -0.743608
vn -0.743608 0.668615 0.000000
vn -0.743608 0.668615 0.000000
vn -0.743608 0.668616 0.000000
vn -0.743608 0.668616 0.000000
vn 0.000000 -0.643039 0.765833
vn 0.000000 -0.643039 0.765833
vn 0.000000 -0.643039 0.765833
vn 0.000000 -0.643039 0.765833
vn 0.765833 -0.643039 0.000000
vn 0.765833 -0.643039 0.000000
vn 0.765833 -0.643039 0.000000
vn 0.765833 -0.643039 0.000000
vn 0.000000 -0.643039 -0.765833
vn 0.000000 -0.643039 -0.765833
vn 0.000000 -0.643039 -0.765833
vn 0.000000 -0.643039 -0.765833
vn -0.765833 -0.643039 0.000000
vn -0.765833 -0.643039 0.000000
vn -0.765833 -0.643039 0.000000
vn -0.765833 -0.643039 0.000000
vn 0.000000 0.000000 1.000000
vn 0.000000 0.000000 1.000000
vn 0.000000 0.000000 1.000000
vn 0.000000 0.000000 1.000000
vn 1.000000 0.000000 0.000000
vn 1.000000 0.000000 0.000000
vn 1.000000 0.000000 0.000000
vn 1.000000 0.000000 0.000000
vn 0.000000 0.000000 -1.000000
vn 0.000000 0.000000 -1.000000
vn 0.000000 0.000000 -1.000000
vn 0.000000 0.000000 -1.000000
vn -1.000000 0.000000 0.000000
vn -1.000000 0.000000 0.000000
vn -1.000000 0.000000 0.000000
vn -1.000000 0.000000 0.000000
vn 0.000000 0.000000 1.000000
vn 0.000000 0.000000 1.000000
vn 0.000000 0.000000 1.000000
vn 0.000000 0.000000 1.000000
vn 1.000000 0.000000 0.000000
vn 1.000000 0.000000 0.000000
vn 1.000000 0.000000 0.000000
vn 1.000000 0.000000 0.000000
vn 0.000000 0.000000 -1.000000
vn 0.000000 0.000000 -1.000000
vn 0.000000 0.000000 -1.000000
vn 0.000000 0.000000 -1.000000
vn -1.000000 0.000000 0.000000
vn -1.000000 0.000000 0.000000
vn -1.000000 0.000000 0.000000
vn -1.000000 0.000000 0.000000
s 1
g Fencing_1
usemtl initialShadingGroup
f 1/1/1 2/2/2 4/4/3 3/3/4
f 3/3/4 4/4/3 6/6/5 5/5/6
s off
f 53/61/7 54/62/8 55/63/9 56/64/10
s 2
f 7/7/11 8/8/12 10/10/13 9/9/14
f 9/9/14 10/10/13 12/12/15 11/11/16
s off
f 11/11/17 12/12/18 2/14/19 1/13/20
s 3
f 2/2/21 12/15/22 10/16/23 4/4/24
f 4/4/24 10/16/23 8/17/25 6/6/26
s 4
f 11/18/27 1/1/28 3/3/29 9/19/30
f 9/19/30 3/3/29 5/5/31 7/20/32
s off
f 5/5/33 6/6/34 14/22/35 13/21/36
f 6/6/37 8/8/38 15/23/39 14/22/40
f 8/8/41 7/7/42 16/24/43 15/23/44
f 7/7/45 5/5/46 13/21/47 16/24/48
f 13/21/49 14/22/50 18/26/51 17/25/52
f 14/22/53 15/23/54 19/27/55 18/26/56
f 15/23/57 16/24/58 20/28/59 19/27/60
f 16/24/61 13/21/62 17/25/63 20/28/64
f 17/25/65 18/26/66 22/30/67 21/29/68
f 18/26/69 19/27/70 23/31/71 22/30/72
f 19/27/73 20/28/74 24/32/75 23/31/76
f 20/28/77 17/25/78 21/29/79 24/32/80
f 21/29/81 22/30/82 26/34/83 25/33/84
f 22/30/85 23/31/86 27/35/87 26/34/88
f 23/31/89 24/32/90 28/36/91 27/35/92
f 24/32/93 21/29/94 25/33/95 28/36/96
f 25/33/97 26/34/98 30/38/99 29/37/100
f 26/34/101 27/35/102 31/39/103 30/38/104
f 27/35/105 28/36/106 32/40/107 31/39/108
f 28/36/109 25/33/110 29/37/111 32/40/112
f 29/37/113 30/38/114 34/42/115 33/41/116
f 30/38/117 31/39/118 35/43/119 34/42/120
f 31/39/121 32/40/122 36/44/123 35/43/124
f 32/40/125 29/37/126 33/41/127 36/44/128
f 33/41/129 34/42/130 38/46/131 37/45/132
f 34/42/133 35/43/134 39/47/135 38/46/136
f 35/43/137 36/44/138 40/48/139 39/47/140
f 36/44/141 33/41/142 37/45/143 40/48/144
f 37/45/145 38/46/146 42/50/147 41/49/148
f 38/46/149 39/47/150 43/51/151 42/50/152
f 39/47/153 40/48/154 44/52/155 43/51/156
f 40/48/157 37/45/158 41/49/159 44/52/160
f 41/49/161 42/50/162 46/54/163 45/53/164
f 42/50/165 43/51/166 47/55/167 46/54/168
f 43/51/169 44/52/170 48/56/171 47/55/172
f 44/52/173 41/49/174 45/53/175 48/56/176
f 45/53/177 46/54/178 50/58/179 49/57/180
f 46/54/181 47/55/182 51/59/183 50/58/184
f 47/55/185 48/56/186 52/60/187 51/59/188
f 48/56/189 45/53/190 49/57/191 52/60/192
f 49/57/193 50/58/194 54/62/195 53/61/196
f 50/58/197 51/59/198 55/63/199 54/62/200
f 51/59/201 52/60/202 56/64/203 55/63/204
f 52/60/205 49/57/206 53/61/207 56/64/208
