# This file uses centimeters as units for non-parametric coordinates.

mtllib Rail_fence_Top.mtl
g default
v -0.545919 5.881763 0.545919
v 0.545919 5.881763 0.545919
v -0.545919 6.948954 0.545919
v 0.545919 6.948954 0.545919
v -0.545919 6.948954 -0.545919
v 0.545919 6.948954 -0.545919
v -0.545919 5.881763 -0.545919
v 0.545919 5.881763 -0.545919
v -0.296498 7.170899 0.296498
v 0.296498 7.170899 0.296498
v 0.296498 7.170899 -0.296498
v -0.296498 7.170899 -0.296498
v -0.244044 7.272420 0.244044
v 0.244044 7.272420 0.244044
v 0.244044 7.272420 -0.244044
v -0.244044 7.272420 -0.244044
v -0.419562 7.584345 0.419562
v 0.419562 7.584345 0.419562
v 0.419562 7.584345 -0.419562
v -0.419562 7.584345 -0.419562
v -0.419562 7.947339 0.419562
v 0.419562 7.947339 0.419562
v 0.419562 7.947339 -0.419562
v -0.419562 7.947339 -0.419562
v -0.158721 8.206211 0.158721
v 0.158721 8.206211 0.158721
v 0.158721 8.206211 -0.158721
v -0.158721 8.206211 -0.158721
vt 0.375000 0.000000
vt 0.625000 0.000000
vt 0.375000 0.250000
vt 0.625000 0.250000
vt 0.375000 0.500000
vt 0.625000 0.500000
vt 0.375000 0.750000
vt 0.625000 0.750000
vt 0.375000 1.000000
vt 0.625000 1.000000
vt 0.875000 0.000000
vt 0.875000 0.250000
vt 0.125000 0.000000
vt 0.125000 0.250000
vt 0.375000 0.250000
vt 0.625000 0.250000
vt 0.625000 0.500000
vt 0.375000 0.500000
vt 0.375000 0.250000
vt 0.625000 0.250000
vt 0.625000 0.500000
vt 0.375000 0.500000
vt 0.375000 0.250000
vt 0.625000 0.250000
vt 0.625000 0.500000
vt 0.375000 0.500000
vt 0.375000 0.250000
vt 0.625000 0.250000
vt 0.625000 0.500000
vt 0.375000 0.500000
vt 0.375000 0.250000
vt 0.625000 0.250000
vt 0.625000 0.500000
vt 0.375000 0.500000
vn 0.000000 0.000000 1.000000
vn 0.000000 0.000000 1.000000
vn 0.000000 0.000000 1.000000
vn 0.000000 0.000000 1.000000
vn 0.000000 1.000000 0.000000
vn 0.000000 1.000000 0.000000
vn 0.000000 1.000000 0.000000
vn 0.000000 1.000000 0.000000
vn 0.000000 0.000000 -1.000000
vn 0.000000 0.000000 -1.000000
vn 0.000000 0.000000 -1.000000
vn 0.000000 0.000000 -1.000000
vn 0.000000 -1.000000 0.000000
vn 0.000000 -1.000000 0.000000
vn 0.000000 -1.000000 0.000000
vn 0.000000 -1.000000 0.000000
vn 1.000000 0.000000 0.000000
vn 1.000000 0.000000 0.000000
vn 1.000000 0.000000 0.000000
vn 1.000000 0.000000 0.000000
vn -1.000000 0.000000 0.000000
vn -1.000000 0.000000 0.000000
vn -1.000000 0.000000 0.000000
vn -1.000000 0.000000 0.000000
vn 0.000000 0.747056 0.664762
vn 0.000000 0.747056 0.664762
vn 0.000000 0.747056 0.664762
vn 0.000000 0.747056 0.664762
vn 0.664762 0.747056 0.000000
vn 0.664762 0.747056 0.000000
vn 0.664762 0.747056 0.000000
vn 0.664762 0.747056 0.000000
vn 0.000000 0.747056 -0.664762
vn 0.000000 0.747056 -0.664762
vn 0.000000 0.747056 -0.664762
vn 0.000000 0.747056 -0.664762
vn -0.664762 0.747056 0.000000
vn -0.664762 0.747056 0.000000
vn -0.664762 0.747056 0.000000
vn -0.664762 0.747056 0.000000
vn 0.000000 0.459037 0.888417
vn 0.000000 0.459037 0.888417
vn 0.000000 0.459037 0.888417
vn 0.000000 0.459037 0.888417
vn 0.888417 0.459037 0.000000
vn 0.888417 0.459037 0.000000
vn 0.888417 0.459037 0.000000
vn 0.888417 0.459037 0.000000
vn 0.000000 0.459037 -0.888417
vn 0.000000 0.459037 -0.888417
vn 0.000000 0.459037 -0.888417
vn 0.000000 0.459037 -0.888417
vn -0.888417 0.459037 0.000000
vn -0.888417 0.459037 0.000000
vn -0.888417 0.459037 0.000000
vn -0.888417 0.459037 0.000000
vn 0.000000 -0.490390 0.871503
vn 0.000000 -0.490390 0.871503
vn 0.000000 -0.490390 0.871503
vn 0.000000 -0.490390 0.871503
vn 0.871503 -0.490390 0.000000
vn 0.871503 -0.490390 0.000000
vn 0.871503 -0.490390 0.000000
vn 0.871503 -0.490390 0.000000
vn 0.000000 -0.490390 -0.871503
vn 0.000000 -0.490390 -0.871503
vn 0.000000 -0.490390 -0.871503
vn 0.000000 -0.490390 -0.871503
vn -0.871503 -0.490390 0.000000
vn -0.871503 -0.490390 0.000000
vn -0.871503 -0.490390 0.000000
vn -0.871503 -0.490390 0.000000
vn 0.000000 0.000000 1.000000
vn 0.000000 0.000000 1.000000
vn 0.000000 0.000000 1.000000
vn 0.000000 0.000000 1.000000
vn 1.000000 0.000000 0.000000
vn 1.000000 0.000000 0.000000
vn 1.000000 0.000000 0.000000
vn 1.000000 0.000000 0.000000
vn 0.000000 0.000000 -1.000000
vn 0.000000 0.000000 -1.000000
vn 0.000000 0.000000 -1.000000
vn 0.000000 0.000000 -1.000000
vn -1.000000 0.000000 0.000000
vn -1.000000 0.000000 0.000000
vn -1.000000 0.000000 0.000000
vn -1.000000 0.000000 0.000000
vn 0.000000 0.709781 0.704423
vn 0.000000 0.709781 0.704423
vn 0.000000 0.709781 0.704423
vn 0.000000 0.709781 0.704423
vn 0.704423 0.709781 0.000000
vn 0.704423 0.709781 0.000000
vn 0.704423 0.709781 0.000000
vn 0.704423 0.709781 0.000000
vn 0.000000 0.709781 -0.704423
vn 0.000000 0.709781 -0.704423
vn 0.000000 0.709781 -0.704423
vn 0.000000 0.709781 -0.704423
vn -0.704423 0.709781 0.000000
vn -0.704423 0.709781 0.000000
vn -0.704423 0.709781 0.000000
vn -0.704423 0.709781 0.000000
s off
g pCube2
usemtl initialShadingGroup
f 1/1/1 2/2/2 4/4/3 3/3/4
f 25/31/5 26/32/6 27/33/7 28/34/8
f 5/5/9 6/6/10 8/8/11 7/7/12
f 7/7/13 8/8/14 2/10/15 1/9/16
f 2/2/17 8/11/18 6/12/19 4/4/20
f 7/13/21 1/1/22 3/3/23 5/14/24
f 3/3/25 4/4/26 10/16/27 9/15/28
f 4/4/29 6/6/30 11/17/31 10/16/32
f 6/6/33 5/5/34 12/18/35 11/17/36
f 5/5/37 3/3/38 9/15/39 12/18/40
f 9/15/41 10/16/42 14/20/43 13/19/44
f 10/16/45 11/17/46 15/21/47 14/20/48
f 11/17/49 12/18/50 16/22/51 15/21/52
f 12/18/53 9/15/54 13/19/55 16/22/56
f 13/19/57 14/20/58 18/24/59 17/23/60
f 14/20/61 15/21/62 19/25/63 18/24/64
f 15/21/65 16/22/66 20/26/67 19/25/68
f 16/22/69 13/19/70 17/23/71 20/26/72
f 17/23/73 18/24/74 22/28/75 21/27/76
f 18/24/77 19/25/78 23/29/79 22/28/80
f 19/25/81 20/26/82 24/30/83 23/29/84
f 20/26/85 17/23/86 21/27/87 24/30/88
f 21/27/89 22/28/90 26/32/91 25/31/92
f 22/28/93 23/29/94 27/33/95 26/32/96
f 23/29/97 24/30/98 28/34/99 27/33/100
f 24/30/101 21/27/102 25/31/103 28/34/104
